<?xml version="1.0" encoding="UTF-8" standalone="no"?>
<svg
   height="39"
   viewBox="0 0 39 39"
   width="39"
   version="1.1"
   id="svg5"
   sodipodi:docname="Gbacky.svg"
   inkscape:version="1.4.2 (ebf0e94, 2025-05-08)"
   xmlns:inkscape="http://www.inkscape.org/namespaces/inkscape"
   xmlns:sodipodi="http://sodipodi.sourceforge.net/DTD/sodipodi-0.dtd"
   xmlns="http://www.w3.org/2000/svg"
   xmlns:svg="http://www.w3.org/2000/svg">
  <defs
     id="defs5" />
  <sodipodi:namedview
     id="namedview5"
     pagecolor="#ffffff"
     bordercolor="#000000"
     borderopacity="0.25"
     inkscape:showpageshadow="2"
     inkscape:pageopacity="0.0"
     inkscape:pagecheckerboard="0"
     inkscape:deskcolor="#d1d1d1"
     inkscape:zoom="9.5297102"
     inkscape:cx="12.329861"
     inkscape:cy="21.091932"
     inkscape:window-width="1500"
     inkscape:window-height="928"
     inkscape:window-x="0"
     inkscape:window-y="0"
     inkscape:window-maximized="1"
     inkscape:current-layer="svg5" />
  <rect
     style="fill:#ffffff;stroke:#000000;stroke-width:1.5;stroke-linejoin:round;stroke-miterlimit:8;stroke-dasharray:none;stroke-opacity:1;fill-opacity:1"
     id="rect5"
     width="30.32621"
     height="36.937115"
     x="4.2128544"
     y="1.0648049" />
  <path
     d="m 29.920904,17.827009 c 0,-0.78 -0.07,-1.53 -0.2,-2.25 h -10.36 v 4.26 h 5.92 c -0.26,1.37 -1.04,2.53 -2.21,3.31 v 2.77 h 3.57 c 2.08,-1.92 3.28,-4.74 3.28,-8.09 z"
     fill="#4285f4"
     id="path1" />
  <path
     d="m 19.360904,28.577009 c 2.97,0 5.46,-0.98 7.28,-2.66 l -3.57,-2.77 c -0.98,0.66 -2.23,1.06 -3.71,1.06 -2.86,0 -5.29,-1.93 -6.16,-4.53 H 9.5409038 v 2.84 c 1.8100002,3.59 5.5200002,6.06 9.8200002,6.06 z"
     fill="#34a853"
     id="path2" />
  <path
     d="m 13.200904,19.667009 c -0.22,-0.66 -0.35,-1.36 -0.35,-2.09 0,-0.73 0.13,-1.43 0.35,-2.09 v -2.84 H 9.5409038 c -0.75,1.48 -1.18,3.15 -1.18,4.93 0,1.78 0.43,3.45 1.18,4.93 l 2.8500002,-2.22 z"
     fill="#fbbc05"
     id="path3" />
  <path
     d="m 19.360904,10.957009 c 1.62,0 3.06,0.56 4.21,1.64 l 3.15,-3.15 c -1.91,-1.78 -4.39,-2.87 -7.36,-2.87 -4.3,0 -8.01,2.47 -9.8200002,6.07 l 3.6600002,2.84 c 0.87,-2.6 3.3,-4.53 6.16,-4.53 z"
     fill="#ea4335"
     id="path4" />
  <path
     d="M 8.3609038,6.577009 H 30.360904 v 22 H 8.3609038 Z"
     fill="none"
     id="path5" />
  <path
     style="fill:#000000;stroke:#ea7c35;stroke-width:1;stroke-linejoin:round;stroke-miterlimit:8;stroke-dasharray:none;stroke-opacity:1;fill-opacity:1"
     d="m 6.4164888,26.668941 9.7589542,-6.086229 -5.87636,9.968824 z"
     id="path6"
     sodipodi:nodetypes="cccc" />
  <path
     style="fill:none;stroke:#000000;stroke-width:1.5;stroke-linecap:round;stroke-linejoin:round;stroke-miterlimit:8;stroke-dasharray:none;stroke-opacity:1"
     d="M 9.5645388,34.748935 H 11.348433"
     id="path8"
     sodipodi:nodetypes="cc" />
  <path
     style="fill:none;stroke:#000000;stroke-width:1.5;stroke-linecap:round;stroke-linejoin:round;stroke-miterlimit:8;stroke-dasharray:none;stroke-opacity:1"
     d="m 13.971808,34.85387 h 5.561554"
     id="path10" />
  <path
     style="fill:none;stroke:#000000;stroke-width:1.5;stroke-linecap:round;stroke-linejoin:round;stroke-miterlimit:8;stroke-dasharray:none;stroke-opacity:1"
     d="m 21.632062,34.85387 c 1.364155,0 2.72831,0 4.092464,0"
     id="path11" />
  <path
     style="fill:none;stroke:#000000;stroke-width:1.5;stroke-linecap:round;stroke-linejoin:round;stroke-miterlimit:8;stroke-dasharray:none;stroke-opacity:1"
     d="m 28.144266,34.748935 h 1.04935"
     id="path12"
     sodipodi:nodetypes="cc" />
  <circle
     id="path13"
     style="fill:#000000;stroke:#000000"
     cx="7.255969"
     cy="3.8980503"
     r="0.079241037" />
  <circle
     id="path14"
     style="fill:#000000;stroke:#000000"
     cx="31.70582"
     cy="3.8980503"
     r="0.079241037" />
  <circle
     id="path15"
     style="fill:#000000;stroke:#000000"
     cx="31.495951"
     cy="35.06374"
     r="0.079241037" />
  <circle
     id="path16"
     style="fill:#120000;fill-opacity:1;stroke:#000000"
     cx="7.0460997"
     cy="35.168674"
     r="0.079241037" />
</svg>
